<?xml version="1.0" encoding="us-ascii" standalone="no"?><svg xmlns="http://www.w3.org/2000/svg" xmlns:xlink="http://www.w3.org/1999/xlink" contentStyleType="text/css" height="795px" preserveAspectRatio="none" style="width:998px;height:795px;background:#FFFFFF;" version="1.1" viewBox="0 0 998 795" width="998px" zoomAndPan="magnify"><defs/><g><text fill="#000000" font-family="sans-serif" font-size="14" font-weight="bold" lengthAdjust="spacing" textLength="379" x="302.5" y="24.5332">Casos de uso cr&#237;ticos - Sistema Hospitalario Integrado</text><!--cluster Sistema Laravel HIS--><g id="cluster_Sistema Laravel HIS"><rect fill="none" height="598" rx="2.5" ry="2.5" style="stroke:#181818;stroke-width:1.0;" width="558" x="434" y="191.1094"/><text fill="#000000" font-family="sans-serif" font-size="14" font-weight="bold" lengthAdjust="spacing" textLength="138" x="644" y="207.6426">Sistema Laravel HIS</text></g><g id="elem_UC01"><ellipse cx="568.3026" cy="383.9645" fill="#F1F1F1" rx="92.8026" ry="40.3551" style="stroke:#181818;stroke-width:0.5;"/><text fill="#000000" font-family="sans-serif" font-size="14" lengthAdjust="spacing" textLength="40" x="548.3026" y="370.0836">CU-01</text><text fill="#000000" font-family="sans-serif" font-size="14" lengthAdjust="spacing" textLength="115" x="510.8026" y="387.693">Autenticar usuario</text><text fill="#000000" font-family="sans-serif" font-size="14" lengthAdjust="spacing" textLength="115" x="510.8026" y="405.3024">y gestionar sesi&#243;n</text></g><g id="elem_UC02"><ellipse cx="568.5097" cy="731.9645" fill="#F1F1F1" rx="93.5097" ry="40.3551" style="stroke:#181818;stroke-width:0.5;"/><text fill="#000000" font-family="sans-serif" font-size="14" lengthAdjust="spacing" textLength="40" x="548.5097" y="718.0836">CU-02</text><text fill="#000000" font-family="sans-serif" font-size="14" lengthAdjust="spacing" textLength="116" x="510.5097" y="735.693">Registrar paciente</text><text fill="#000000" font-family="sans-serif" font-size="14" lengthAdjust="spacing" textLength="67" x="535.0097" y="753.3024">y admisi&#243;n</text></g><g id="elem_UC03"><ellipse cx="568.6518" cy="267.9645" fill="#F1F1F1" rx="107.6518" ry="40.3551" style="stroke:#181818;stroke-width:0.5;"/><text fill="#000000" font-family="sans-serif" font-size="14" lengthAdjust="spacing" textLength="40" x="548.6518" y="254.0836">CU-03</text><text fill="#000000" font-family="sans-serif" font-size="14" lengthAdjust="spacing" textLength="136" x="500.6518" y="271.693">Consultar y actualizar</text><text fill="#000000" font-family="sans-serif" font-size="14" lengthAdjust="spacing" textLength="112" x="512.6518" y="289.3024">expediente cl&#237;nico</text></g><g id="elem_UC04"><ellipse cx="568.2584" cy="499.9645" fill="#F1F1F1" rx="118.2584" ry="40.3551" style="stroke:#181818;stroke-width:0.5;"/><text fill="#000000" font-family="sans-serif" font-size="14" lengthAdjust="spacing" textLength="40" x="548.2584" y="486.0836">CU-04</text><text fill="#000000" font-family="sans-serif" font-size="14" lengthAdjust="spacing" textLength="114" x="511.2584" y="503.693">Gestionar orden y</text><text fill="#000000" font-family="sans-serif" font-size="14" lengthAdjust="spacing" textLength="151" x="492.7584" y="521.3024">resultado de laboratorio</text></g><g id="elem_UC05"><ellipse cx="568.4092" cy="615.9645" fill="#F1F1F1" rx="103.4092" ry="40.3551" style="stroke:#181818;stroke-width:0.5;"/><text fill="#000000" font-family="sans-serif" font-size="14" lengthAdjust="spacing" textLength="40" x="548.4092" y="602.0836">CU-05</text><text fill="#000000" font-family="sans-serif" font-size="14" lengthAdjust="spacing" textLength="130" x="503.4092" y="619.693">Autorizar acceso por</text><text fill="#000000" font-family="sans-serif" font-size="14" lengthAdjust="spacing" textLength="71" x="532.9092" y="637.3024">rol y tenant</text></g><g id="elem_Tenant"><ellipse cx="889.8675" cy="413.0128" fill="#F1F1F1" rx="79.3675" ry="27.9034" style="stroke:#181818;stroke-width:0.5;"/><text fill="#000000" font-family="sans-serif" font-size="14" lengthAdjust="spacing" textLength="96" x="841.8675" y="407.9366">Verificar tenant</text><text fill="#000000" font-family="sans-serif" font-size="14" lengthAdjust="spacing" textLength="76" x="851.8675" y="425.546">X-Tenant-ID</text></g><g id="elem_Permission"><ellipse cx="890.1163" cy="571.2326" fill="#F1F1F1" rx="86.1163" ry="19.6233" style="stroke:#181818;stroke-width:0.5;"/><text fill="#000000" font-family="sans-serif" font-size="14" lengthAdjust="spacing" textLength="129" x="825.6163" y="574.9611">Validar rol y permiso</text></g><!--entity user--><g id="elem_user"><ellipse cx="264.5" cy="144.6094" fill="#F1F1F1" rx="8" ry="8" style="stroke:#181818;stroke-width:0.5;"/><path d="M264.5,152.6094 L264.5,179.6094 M251.5,160.6094 L277.5,160.6094 M264.5,179.6094 L251.5,194.6094 M264.5,179.6094 L277.5,194.6094 " fill="none" style="stroke:#181818;stroke-width:0.5;"/><text fill="#000000" font-family="sans-serif" font-size="14" lengthAdjust="spacing" textLength="111" x="209" y="210.6426">Usuario operativo</text></g><!--entity receptionist--><g id="elem_receptionist"><ellipse cx="77" cy="716.6094" fill="#F1F1F1" rx="8" ry="8" style="stroke:#181818;stroke-width:0.5;"/><path d="M77,724.6094 L77,751.6094 M64,732.6094 L90,732.6094 M77,751.6094 L64,766.6094 M77,751.6094 L90,766.6094 " fill="none" style="stroke:#181818;stroke-width:0.5;"/><text fill="#000000" font-family="sans-serif" font-size="14" lengthAdjust="spacing" textLength="89" x="32.5" y="782.6426">Recepcionista</text></g><!--entity doctor--><g id="elem_doctor"><ellipse cx="77" cy="278.6094" fill="#F1F1F1" rx="8" ry="8" style="stroke:#181818;stroke-width:0.5;"/><path d="M77,286.6094 L77,313.6094 M64,294.6094 L90,294.6094 M77,313.6094 L64,328.6094 M77,313.6094 L90,328.6094 " fill="none" style="stroke:#181818;stroke-width:0.5;"/><text fill="#000000" font-family="sans-serif" font-size="14" lengthAdjust="spacing" textLength="45" x="54.5" y="344.6426">M&#233;dico</text></g><!--entity nurse--><g id="elem_nurse"><ellipse cx="77" cy="52.6094" fill="#F1F1F1" rx="8" ry="8" style="stroke:#181818;stroke-width:0.5;"/><path d="M77,60.6094 L77,87.6094 M64,68.6094 L90,68.6094 M77,87.6094 L64,102.6094 M77,87.6094 L90,102.6094 " fill="none" style="stroke:#181818;stroke-width:0.5;"/><text fill="#000000" font-family="sans-serif" font-size="14" lengthAdjust="spacing" textLength="66" x="44" y="118.6426">Enfermera</text></g><!--entity lab--><g id="elem_lab"><ellipse cx="77" cy="165.6094" fill="#F1F1F1" rx="8" ry="8" style="stroke:#181818;stroke-width:0.5;"/><path d="M77,173.6094 L77,200.6094 M64,181.6094 L90,181.6094 M77,200.6094 L64,215.6094 M77,200.6094 L90,215.6094 " fill="none" style="stroke:#181818;stroke-width:0.5;"/><text fill="#000000" font-family="sans-serif" font-size="14" lengthAdjust="spacing" textLength="142" x="6" y="231.6426">T&#233;cnico de laboratorio</text></g><!--entity admin--><g id="elem_admin"><ellipse cx="264.5" cy="328.6094" fill="#F1F1F1" rx="8" ry="8" style="stroke:#181818;stroke-width:0.5;"/><path d="M264.5,336.6094 L264.5,363.6094 M251.5,344.6094 L277.5,344.6094 M264.5,363.6094 L251.5,378.6094 M264.5,363.6094 L277.5,378.6094 " fill="none" style="stroke:#181818;stroke-width:0.5;"/><text fill="#000000" font-family="sans-serif" font-size="14" lengthAdjust="spacing" textLength="87" x="221" y="394.6426">Administrador</text></g><!--entity ci--><g id="elem_ci"><ellipse cx="264.5" cy="618.6094" fill="#F1F1F1" rx="8" ry="8" style="stroke:#181818;stroke-width:0.5;"/><path d="M264.5,626.6094 L264.5,653.6094 M251.5,634.6094 L277.5,634.6094 M264.5,653.6094 L251.5,668.6094 M264.5,653.6094 L277.5,668.6094 " fill="none" style="stroke:#181818;stroke-width:0.5;"/><text fill="#000000" font-family="sans-serif" font-size="14" lengthAdjust="spacing" textLength="88" x="220.5" y="684.6426">Runner CI/CD</text></g><!--link user to UC01--><g id="link_user_UC01"><path d="M299.54,214.3694 C330,247.6094 377.26,294.7394 426,326.1094 C446.76,339.4694 465.5349,348.5617 488.1349,357.5517 " fill="none" id="user-to-UC01" style="stroke:#181818;stroke-width:1.0;"/><polygon fill="#181818" points="493.71,359.7694,486.8258,352.7261,489.0641,357.9213,483.8689,360.1595,493.71,359.7694" style="stroke:#181818;stroke-width:1.0;"/></g><!--link user to Tenant--><g id="link_user_Tenant"><path d="M320.21,172.0394 C402.05,169.1094 560.29,170.0094 687,210.1094 C729.73,223.6294 740.5,231.3294 774,261.1094 C815.92,298.3694 849.5917,347.8217 869.6917,380.4317 " fill="none" id="user-to-Tenant" style="stroke:#181818;stroke-width:1.0;"/><polygon fill="#181818" points="872.84,385.5394,871.5227,375.779,870.2165,381.283,864.7125,379.9767,872.84,385.5394" style="stroke:#181818;stroke-width:1.0;"/></g><!--link receptionist to user--><g id="link_receptionist_user"><path d="M87.86,707.9194 C107.87,629.7894 155.9,449.4794 209,302.1094 C219.78,272.1994 226.5983,255.6372 237.8083,230.7872 " fill="none" id="receptionist-to-user" style="stroke:#181818;stroke-width:1.0;"/><polygon fill="none" points="245.21,214.3794,232.3391,228.3199,243.2776,233.2544,245.21,214.3794" style="stroke:#181818;stroke-width:1.0;"/></g><!--link doctor to user--><g id="link_doctor_user"><path d="M99.64,293.4794 C126.31,274.2094 157.9799,251.3411 194.5599,224.9111 " fill="none" id="doctor-to-user" style="stroke:#181818;stroke-width:1.0;"/><polygon fill="none" points="209.15,214.3694,191.046,220.0477,198.0738,229.7745,209.15,214.3694" style="stroke:#181818;stroke-width:1.0;"/></g><!--link nurse to user--><g id="link_nurse_user"><path d="M110.31,99.1394 C137.4,112.5694 160.5542,124.052 192.5542,139.922 " fill="none" id="nurse-to-user" style="stroke:#181818;stroke-width:1.0;"/><polygon fill="none" points="208.68,147.9194,195.22,134.5467,189.8884,145.2973,208.68,147.9194" style="stroke:#181818;stroke-width:1.0;"/></g><!--link lab to user--><g id="link_lab_user"><path d="M148.13,188.1694 C168.24,185.8894 171.9748,185.4794 191.0048,183.3194 " fill="none" id="lab-to-user" style="stroke:#181818;stroke-width:1.0;"/><polygon fill="none" points="208.89,181.2894,190.3282,177.3577,191.6815,189.2811,208.89,181.2894" style="stroke:#181818;stroke-width:1.0;"/></g><!--link receptionist to UC02--><g id="link_receptionist_UC02"><path d="M121.62,755.0894 C186.46,765.7894 312.02,782.0294 418,769.1094 C442.02,766.1794 461.9224,762.1676 485.1424,756.3076 " fill="none" id="receptionist-to-UC02" style="stroke:#181818;stroke-width:1.0;"/><polygon fill="#181818" points="490.96,754.8394,481.2548,753.1632,486.112,756.0629,483.2124,760.92,490.96,754.8394" style="stroke:#181818;stroke-width:1.0;"/></g><!--link doctor to UC03--><g id="link_doctor_UC03"><path d="M99.66,307.2994 C162.11,302.0594 339.5309,287.2 457.2909,277.34 " fill="none" id="doctor-to-UC03" style="stroke:#181818;stroke-width:1.0;"/><polygon fill="#181818" points="463.27,276.8394,453.9676,273.6043,458.2874,277.2566,454.6351,281.5764,463.27,276.8394" style="stroke:#181818;stroke-width:1.0;"/></g><!--link nurse to UC03--><g id="link_nurse_UC03"><path d="M110.3,83.7094 C157.65,85.4894 248.07,92.3194 320,118.1094 C395.44,145.1594 468.1138,193.1782 515.8338,228.2182 " fill="none" id="nurse-to-UC03" style="stroke:#181818;stroke-width:1.0;"/><polygon fill="#181818" points="520.67,231.7694,515.7831,223.2185,516.6398,228.8101,511.0482,229.6668,520.67,231.7694" style="stroke:#181818;stroke-width:1.0;"/></g><!--link lab to UC04--><g id="link_lab_UC04"><path d="M133.21,235.2994 C138.63,240.5494 143.71,246.1894 148,252.1094 C193.39,314.7394 150.99,363.9494 209,415.1094 C245.64,447.4194 360.2604,470.5228 451.5404,484.6328 " fill="none" id="lab-to-UC04" style="stroke:#181818;stroke-width:1.0;"/><polygon fill="#181818" points="457.47,485.5494,449.1867,480.2214,452.5287,484.7856,447.9646,488.1275,457.47,485.5494" style="stroke:#181818;stroke-width:1.0;"/></g><!--link doctor to UC04--><g id="link_doctor_UC04"><path d="M92.65,348.1594 C111.78,392.8794 149.97,463.9594 209,495.1094 C249.94,516.7194 358.3507,515.258 447.0207,509.948 " fill="none" id="doctor-to-UC04" style="stroke:#181818;stroke-width:1.0;"/><polygon fill="#181818" points="453.01,509.5894,443.787,506.1345,448.0189,509.8883,444.2652,514.1202,453.01,509.5894" style="stroke:#181818;stroke-width:1.0;"/><text fill="#000000" font-family="sans-serif" font-size="13" lengthAdjust="spacing" textLength="86" x="221.5" y="491.6045">Ordena / valida</text></g><!--link admin to UC01--><g id="link_admin_UC01"><path d="M308.13,362.6394 C351.78,366.2494 415.0004,371.4846 470.9504,376.1146 " fill="none" id="admin-to-UC01" style="stroke:#181818;stroke-width:1.0;"/><polygon fill="#181818" points="476.93,376.6094,468.2905,371.8808,471.947,376.197,467.6308,379.8535,476.93,376.6094" style="stroke:#181818;stroke-width:1.0;"/></g><!--link admin to UC05--><g id="link_admin_UC05"><path d="M308.13,388.1494 C343.6,414.7594 392.29,457.4794 418,507.1094 C428.55,527.4794 411.78,540.1094 426,558.1094 C439.41,575.0894 453.1137,584.7692 473.0737,593.3092 " fill="none" id="admin-to-UC05" style="stroke:#181818;stroke-width:1.0;"/><polygon fill="#181818" points="478.59,595.6694,471.889,588.4516,473.9931,593.7026,468.7421,595.8066,478.59,595.6694" style="stroke:#181818;stroke-width:1.0;"/></g><!--link ci to UC01--><g id="link_ci_UC01"><path d="M308.85,639.1394 C349.06,628.9394 404.66,612.0794 418,594.1094 C438.16,566.9494 406.42,469.6894 426,442.1094 C439.83,422.6194 455.8263,411.8398 478.0163,403.2298 " fill="none" id="ci-to-UC01" style="stroke:#181818;stroke-width:1.0;"/><polygon fill="#181818" points="483.61,401.0594,473.7725,400.5859,478.9486,402.8681,476.6664,408.0441,483.61,401.0594" style="stroke:#181818;stroke-width:1.0;"/><text fill="#000000" font-family="sans-serif" font-size="13" lengthAdjust="spacing" textLength="41" x="363.5" y="590.6045">Prueba</text></g><!--link ci to UC02--><g id="link_ci_UC02"><path d="M287.46,688.1194 C302.07,709.8594 323.45,734.9494 350,747.1094 C393.79,767.1694 441.8974,764.7603 485.1374,756.0803 " fill="none" id="ci-to-UC02" style="stroke:#181818;stroke-width:1.0;"/><polygon fill="#181818" points="491.02,754.8994,481.4088,752.7489,486.1178,755.8834,482.9833,760.5925,491.02,754.8994" style="stroke:#181818;stroke-width:1.0;"/><text fill="#000000" font-family="sans-serif" font-size="13" lengthAdjust="spacing" textLength="66" x="351" y="743.6045">Suite futura</text></g><!--link ci to UC03--><g id="link_ci_UC03"><path d="M292.88,609.7294 C302,595.9094 311.88,580.0894 320,565.1094 C375.35,462.9394 342.67,407.0994 426,326.1094 C441.23,311.3094 455.2445,302.4515 474.9045,294.0315 " fill="none" id="ci-to-UC03" style="stroke:#181818;stroke-width:1.0;"/><polygon fill="#181818" points="480.42,291.6694,470.5721,291.5357,475.8238,293.6378,473.7216,298.8896,480.42,291.6694" style="stroke:#181818;stroke-width:1.0;"/><text fill="#000000" font-family="sans-serif" font-size="13" lengthAdjust="spacing" textLength="66" x="351" y="332.6045">Suite futura</text></g><!--link ci to UC04--><g id="link_ci_UC04"><path d="M308.61,664.4194 C342.68,673.4794 389.14,678.6194 418,652.1094 C433.44,637.9294 413.59,575.0094 426,558.1094 C437.31,542.6994 448.0493,533.9625 465.4093,525.6425 " fill="none" id="ci-to-UC04" style="stroke:#181818;stroke-width:1.0;"/><polygon fill="#181818" points="470.82,523.0494,460.9752,523.332,466.3111,525.2103,464.4327,530.5462,470.82,523.0494" style="stroke:#181818;stroke-width:1.0;"/><text fill="#000000" font-family="sans-serif" font-size="13" lengthAdjust="spacing" textLength="66" x="351" y="648.6045">Suite futura</text></g><!--link ci to UC05--><g id="link_ci_UC05"><path d="M308.46,688.1594 C341.11,712.9794 385.75,735.9794 418,710.1094 C430.79,699.8494 415.44,686.6394 426,674.1094 C440.03,657.4594 454.0664,647.8723 474.1764,639.3423 " fill="none" id="ci-to-UC05" style="stroke:#181818;stroke-width:1.0;"/><polygon fill="#181818" points="479.7,636.9994,469.8526,636.8314,475.097,638.9518,472.9765,644.1962,479.7,636.9994" style="stroke:#181818;stroke-width:1.0;"/><text fill="#000000" font-family="sans-serif" font-size="13" lengthAdjust="spacing" textLength="66" x="351" y="706.6045">Suite futura</text></g><!--link UC01 to Tenant--><g id="link_UC01_Tenant"><path d="M659.77,392.2994 C708.03,396.6794 760.8146,401.477 806.7546,405.647 " fill="none" id="UC01-to-Tenant" style="stroke:#181818;stroke-width:1.0;stroke-dasharray:7.0,7.0;"/><polygon fill="#181818" points="812.73,406.1894,804.1284,401.3922,807.7505,405.7374,803.4053,409.3594,812.73,406.1894" style="stroke:#181818;stroke-width:1.0;"/><text fill="#000000" font-family="sans-serif" font-size="13" lengthAdjust="spacing" textLength="55" x="718" y="394.6045">&#171;include&#187;</text></g><!--link UC02 to Tenant--><g id="link_UC02_Tenant"><path d="M655.41,716.9994 C696.68,705.5194 743.64,685.5594 774,651.1094 C809.49,610.8294 781.54,582.8694 804,534.1094 C820.11,499.1294 842.7367,468.2482 861.8467,444.8282 " fill="none" id="UC02-to-Tenant" style="stroke:#181818;stroke-width:1.0;stroke-dasharray:7.0,7.0;"/><polygon fill="#181818" points="865.64,440.1794,856.8509,444.6237,862.4789,444.0534,863.0493,449.6814,865.64,440.1794" style="stroke:#181818;stroke-width:1.0;"/><text fill="#000000" font-family="sans-serif" font-size="13" lengthAdjust="spacing" textLength="55" x="718" y="647.6045">&#171;include&#187;</text></g><!--link UC03 to Tenant--><g id="link_UC03_Tenant"><path d="M673.77,276.6094 C707.08,282.2594 743.25,291.6194 774,307.1094 C811.83,326.1594 842.3507,356.8078 863.4707,381.3978 " fill="none" id="UC03-to-Tenant" style="stroke:#181818;stroke-width:1.0;stroke-dasharray:7.0,7.0;"/><polygon fill="#181818" points="867.38,385.9494,864.5504,376.5157,864.1222,382.1564,858.4816,381.7282,867.38,385.9494" style="stroke:#181818;stroke-width:1.0;"/><text fill="#000000" font-family="sans-serif" font-size="13" lengthAdjust="spacing" textLength="55" x="718" y="283.6045">&#171;include&#187;</text></g><!--link UC04 to Tenant--><g id="link_UC04_Tenant"><path d="M661.91,474.9494 C714.81,460.5394 773.9607,444.4355 820.8307,431.6755 " fill="none" id="UC04-to-Tenant" style="stroke:#181818;stroke-width:1.0;stroke-dasharray:7.0,7.0;"/><polygon fill="#181818" points="826.62,430.0994,816.8853,428.604,821.7956,431.4128,818.9868,436.323,826.62,430.0994" style="stroke:#181818;stroke-width:1.0;"/><text fill="#000000" font-family="sans-serif" font-size="13" lengthAdjust="spacing" textLength="55" x="718" y="443.6045">&#171;include&#187;</text></g><!--link UC05 to Tenant--><g id="link_UC05_Tenant"><path d="M668.41,605.3294 C703.88,598.0194 742.78,585.7294 774,565.1094 C786.7,556.7194 837.0869,486.7691 866.3769,445.3291 " fill="none" id="UC05-to-Tenant" style="stroke:#181818;stroke-width:1.0;stroke-dasharray:7.0,7.0;"/><polygon fill="#181818" points="869.84,440.4294,861.3789,445.4701,866.9541,444.5124,867.9118,450.0876,869.84,440.4294" style="stroke:#181818;stroke-width:1.0;"/><text fill="#000000" font-family="sans-serif" font-size="13" lengthAdjust="spacing" textLength="55" x="718" y="561.6045">&#171;include&#187;</text></g><!--link UC02 to Permission--><g id="link_UC02_Permission"><path d="M651.8,750.6994 C690.87,755.3094 736.99,754.3594 774,735.1094 C833.39,704.2194 866.3674,632.6614 880.1274,596.2814 " fill="none" id="UC02-to-Permission" style="stroke:#181818;stroke-width:1.0;stroke-dasharray:7.0,7.0;"/><polygon fill="#181818" points="882.25,590.6694,875.3247,597.6723,880.4811,595.346,882.8074,600.5024,882.25,590.6694" style="stroke:#181818;stroke-width:1.0;"/><text fill="#000000" font-family="sans-serif" font-size="13" lengthAdjust="spacing" textLength="55" x="718" y="731.6045">&#171;include&#187;</text></g><!--link UC03 to Permission--><g id="link_UC03_Permission"><path d="M641.68,297.8094 C692.72,320.0694 755.27,350.3194 774,372.1094 C800.39,402.8094 784.94,422.3994 804,458.1094 C823.07,493.8394 848.9251,525.9386 867.6951,547.4486 " fill="none" id="UC03-to-Permission" style="stroke:#181818;stroke-width:1.0;stroke-dasharray:7.0,7.0;"/><polygon fill="#181818" points="871.64,551.9694,868.7365,542.5582,868.3526,548.202,862.7088,547.8181,871.64,551.9694" style="stroke:#181818;stroke-width:1.0;"/><text fill="#000000" font-family="sans-serif" font-size="13" lengthAdjust="spacing" textLength="55" x="718" y="332.6045">&#171;include&#187;</text></g><!--link UC04 to Permission--><g id="link_UC04_Permission"><path d="M674.41,518.3894 C706.49,524.4394 741.8,531.5694 774,539.1094 C794.78,543.9694 811.6883,548.46 831.3683,554.05 " fill="none" id="UC04-to-Permission" style="stroke:#181818;stroke-width:1.0;stroke-dasharray:7.0,7.0;"/><polygon fill="#181818" points="837.14,555.6894,829.5754,549.3825,832.3303,554.3232,827.3895,557.078,837.14,555.6894" style="stroke:#181818;stroke-width:1.0;"/><text fill="#000000" font-family="sans-serif" font-size="13" lengthAdjust="spacing" textLength="55" x="718" y="523.6045">&#171;include&#187;</text></g><!--link UC05 to Permission--><g id="link_UC05_Permission"><path d="M669.09,625.9694 C702.69,627.0794 740.23,625.8794 774,619.1094 C802.85,613.3294 828.1239,602.8134 850.5239,591.7134 " fill="none" id="UC05-to-Permission" style="stroke:#181818;stroke-width:1.0;stroke-dasharray:7.0,7.0;"/><polygon fill="#181818" points="855.9,589.0494,846.0598,589.4614,851.4199,591.2694,849.6118,596.6296,855.9,589.0494" style="stroke:#181818;stroke-width:1.0;"/><text fill="#000000" font-family="sans-serif" font-size="13" lengthAdjust="spacing" textLength="55" x="718" y="615.6045">&#171;include&#187;</text></g><!--SRC=[ZLFBRjim4BppAnQ-AmzRkXI1W40j6WCj6iHnqOCk3BLMYSYaG596tSS7vP1JFy4_rYKPER9Tk_L9kxCxEpjSDxXmu3GOMNzrK4c3macjc7sKgkM6Bw7buf7NE7Fh1i73NDKDCkQaeqJ1hRPG8NHMWp2RPoS59HAOIUjmoU56srOwtd0ZDKoLmzhmIZF6XTC6HdFR1KItQBYJApq2ReaCJLznXm9RGPg8a0VK-8oBcRxgu-Qfeia1hxJFzSWxjK2p9FQ0gSvOxA7xpPDGrENrD_n1am9DOa8XnNtPTRMKVfONRWB8VMOhi5CA3HJJy-9jG8LaR6iKZ7edFf2TAspWPZeRmGy6zACz1RTKKyoJYyjINNSE5Jd83K71c5AjeKRhjwMaHIitlrMOCYykBWz9ngMwmpg8DVxf9F6X9_6ITvh7XysJKXLQsQvnr4mjmdMyaT-vAHL-Qx4AP22QpRFglIQYoI5HMghtMz7QLAXWNIg3WRhwgzz4b1uIPS4JAY8Hf4SWNLchIO_H3IaajxXoVN-ss_yPZLm4BsDPgRuaz-4hcSQ7Yj5U5srSKKySG5T9jaM5j-7R-d_7ByRyYKAIvF4Tjj4BvV14AVypZoSTBtEG2ESuYCcLGRHFayTtsxBaqVwUv2MC77bqTBSsXJVmoJy7XtDOXKrPkENNJNR2Z0cvXQZtrdJum0V9CILddQIhM7IkCqDeSXnAZqFPFiJ2wBEptbh2hwwa4arNOPwpeE4KEZc9fYVHx3_clbx5iTcdAj9_LcGdA_u0]--></g></svg>